# xmcd
#
# Track frame offsets:
#	150
#	12602
#	24650
#	45177
#	61862
#	73717
#	86687
#	98490
#	113807
#	127947
#	139837
#	153445
#
# Disc length: 2212 seconds
#
# Revision: 3
# Processed by: cddbd v1.5.2PL0 Copyright (c) Steve Scherf et al.
# Submitted via: MusicManager 7.3.0.0 
#
DISCID=9408a20c
DTITLE=Elvis Presley - From Elvis In Memphis (Japan 24 Bit Remaster)
DYEAR=1900
DGENRE=Rock and Roll
TTITLE0=Wearin' That Loved On Look
TTITLE1=Only The Strong Survive
TTITLE2=I'll Hold You In My Heart
TTITLE3=Long Black Limousine
TTITLE4=It Keeps Right On A-Hurtin'
TTITLE5=I'm Movin' On
TTITLE6=Power Of My Love
TTITLE7=Gentle On My Mind
TTITLE8=After Loving You
TTITLE9=Thue Love Travels On A Gravel Road
TTITLE10=Any Day Now
TTITLE11=In The Ghetto
EXTD=
EXTT0=
EXTT1=
EXTT2=
EXTT3=
EXTT4=
EXTT5=
EXTT6=
EXTT7=
EXTT8=
EXTT9=
EXTT10=
EXTT11=
PLAYORDER=
